<svg width="660" height="648" xmlns="http://www.w3.org/2000/svg"><g fill="red" fill-rule="evenodd"><path d="M385.094 279.565c-2.36 5.005-7.571 7.632-11.535 5.644-3.842-1.926-5.156-7.524-2.998-12.486 2.21-5.075 7.524-7.533 11.538-5.644 4.01 1.889 5.35 7.48 2.995 12.486m-98.65 5.654c-3.97 1.991-9.188-.639-11.548-5.651-2.362-5.012-1.019-10.61 3.002-12.5 4.013-1.892 9.334.57 11.544 5.652 2.164 4.969.85 10.57-2.998 12.499M533.81 368.23c-3.801 0-7.428-.681-10.816-1.876a40.496 40.496 0 0 0 3.52-16.542c0-16.44-9.788-30.622-23.837-37.067v-25.78c-1.91.219-3.845.345-5.814.345-27.798 0-50.339-22.537-50.339-50.335 0-5.813 1.046-11.367 2.866-16.562a14.851 14.851 0 0 0 12.54 4.414c6.595-.807 12.009-6.157 12.876-12.744 1.33-10.117-7.522-18.59-17.736-16.599-5.397 1.05-9.838 5.218-11.317 10.515-.943 3.374-.648 6.59.44 9.412-2.223.252-4.473.424-6.763.424-29.202 0-53.545-20.483-59.644-47.847 3.26.324 6.774-.195 10.483-2.594 5.142-3.321 8.59-8.813 8.45-14.934-.234-10.292-9.502-18.355-20.187-16.568-7.3 1.22-13.116 7.278-14.09 14.616-1.052 7.924 3.303 14.958 9.881 17.985-11.862 10.365-27.358 16.671-44.35 16.671-16.988 0-32.483-6.303-44.346-16.665 6.559-3.01 10.906-9.994 9.91-17.882-.96-7.596-7.14-13.819-14.734-14.821-11.757-1.549-21.598 8.774-19.199 20.654 1.201 5.949 5.655 10.921 11.44 12.767 2.481.794 4.89 1 7.17.771-6.099 27.364-30.442 47.847-59.647 47.847-2.3 0-4.556-.176-6.79-.427 1.089-2.819 1.38-6.035.437-9.413-1.476-5.293-5.92-9.458-11.317-10.51-10.214-1.992-19.063 6.48-17.736 16.598.867 6.59 6.287 11.94 12.889 12.744a14.838 14.838 0 0 0 12.55-4.44c1.824 5.204 2.873 10.766 2.873 16.588 0 27.798-22.538 50.335-50.34 50.335-1.965 0-3.9-.126-5.81-.344v25.779c-14.053 6.445-23.837 20.628-23.837 37.067a40.548 40.548 0 0 0 3.517 16.542c-3.385 1.195-7.015 1.876-10.813 1.876-19.136 0-34.42-16.492-32.411-36.032 1.508-14.696 13.156-26.758 27.785-28.81 7.74-1.081 15.009.61 21.058 4.153l10.244-21.287c-22.875-4.737-40.068-24.998-40.068-49.279 0-27.794 22.534-50.33 50.336-50.33.863 0 1.714.026 2.567.072l-.006-.013a1.933 1.933 0 0 0 1.436-2.33h.007c-5.97-10.699-8.872-23.343-7.366-36.772 3.147-28.082 25.846-50.708 53.945-53.765 17.67-1.923 34.013 3.698 46.263 14.03 1.145.967 2.921.282 3.12-1.2 4.407-33.002 32.656-58.467 66.874-58.467 34.227 0 62.489 25.485 66.88 58.506.195 1.486 1.972 2.167 3.12 1.198 12.263-10.365 28.652-16.003 46.362-14.06 28.096 3.08 50.775 25.722 53.895 53.81 1.496 13.43-1.412 26.071-7.398 36.767l.033.007a1.928 1.928 0 0 0 1.356 2.292c.877-.05 1.757-.076 2.64-.076 27.803 0 50.343 22.537 50.343 50.331 0 24.28-17.196 44.542-40.071 49.28l10.244 21.286c4.878-2.856 10.54-4.51 16.608-4.477 17.26.093 31.822 14.23 32.394 31.48.612 18.494-14.205 33.686-32.57 33.686m-15.207-15.11c-.007.037-.007.073-.007.11-.53 7.397-1.999 14.5-4.454 21.177a69.03 69.03 0 0 1-5.486 11.53 41.744 41.744 0 0 1-1.466 2.306c-3.074 4.539-7.012 8.595-11.737 11.533-.784.493-1.595.95-2.425 1.376a35.365 35.365 0 0 1-5.129 2.293 37.883 37.883 0 0 1-8.2 1.912 39.991 39.991 0 0 1-5.631.275 41.247 41.247 0 0 1-11.168-1.8 39.846 39.846 0 0 1-7.839-3.355 37.842 37.842 0 0 1-4.758-3.166c-6.019-4.658-10.787-11.017-13.405-18.242a38.54 38.54 0 0 1-2.432-11.226l-.162-2.848-.013-1.277-.017-1.277-.062-5.115-.255-19.315c-.086-6.809-.076-15.784-.626-22.113-2.097-25.846-14.221-50.517-33.175-67.949-9.48-8.68-20.466-15.741-32.414-20.502-11.942-4.787-24.883-6.799-37.792-6.921-12.911.122-25.753 2.134-37.695 6.921-11.945 4.76-22.934 11.821-32.418 20.502-18.95 17.432-31.074 42.103-33.168 67.949-.553 6.329-.546 15.304-.63 22.113l-.254 19.315-.063 5.115-.016 1.277-.017 1.277-.159 2.848a38.433 38.433 0 0 1-2.432 11.226c-2.617 7.225-7.382 13.584-13.404 18.242a37.604 37.604 0 0 1-4.758 3.166 39.818 39.818 0 0 1-7.836 3.355 41.27 41.27 0 0 1-11.171 1.8c-1.883.04-3.769-.05-5.635-.275a37.9 37.9 0 0 1-8.196-1.912 35.526 35.526 0 0 1-5.13-2.293 31.612 31.612 0 0 1-2.425-1.376c-4.725-2.938-8.662-6.994-11.74-11.533-.513-.751-.999-1.522-1.466-2.306a69.275 69.275 0 0 1-5.482-11.53c-2.456-6.676-3.925-13.78-4.451-21.177-.003-.037-.003-.073-.007-.11-.076-1.078-.162-2.15-.198-3.242.013.05.03.093.043.14 0-.024-.003-.047-.003-.07a.45.45 0 0 1-.007-.07c0-13.531 8.23-25.14 19.956-30.096a32.535 32.535 0 0 1 12.716-2.568c2.254 0 4.457.229 6.585.665a32.252 32.252 0 0 1 6.132 1.903 32.736 32.736 0 0 1 10.383 7 34.015 34.015 0 0 1 2.108 2.316 32.404 32.404 0 0 1 3.517 5.211 32.503 32.503 0 0 1 3.944 15.57c0 5.64-1.429 10.944-3.944 15.569a32.376 32.376 0 0 1-3.517 5.207 32.746 32.746 0 0 1-12.491 9.323 32.734 32.734 0 0 1-6.132 1.903 32.976 32.976 0 0 1-6.585.661 32.882 32.882 0 0 1-5.777-.51 32.166 32.166 0 0 1-10.456-3.825 32.64 32.64 0 0 1-4.378-3.016c-1.026-.84-2.452.394-1.813 1.558a68.666 68.666 0 0 0 4.066 6.551 33.948 33.948 0 0 0 6.443 6.898 33.847 33.847 0 0 0 7.958 4.82 32.832 32.832 0 0 0 6.578 2.108c3.749.78 7.614.923 11.39.503 5.27-.721 10.327-2.687 14.612-5.75.615-.44 1.207-.9 1.786-1.38a34.344 34.344 0 0 0 1.691-1.485 32.318 32.318 0 0 0 6.717-8.92 30.356 30.356 0 0 0 1.721-4.122 29.227 29.227 0 0 0 1.655-8.718l.076-2.26-.03-2.553-.066-5.115-.252-20.446c-.04-3.408-.109-6.793-.119-10.23-.01-3.44.043-6.938.258-10.574.818-14.262 4.332-28.419 10.38-41.444a114.296 114.296 0 0 1 7.892-14.087c1.969-3.001 4.083-5.913 6.33-8.715a115.408 115.408 0 0 1 7.111-8.096 111.988 111.988 0 0 1 3.838-3.788A106.728 106.728 0 0 1 264.04 229.7a107.767 107.767 0 0 1 4.49-2.984 112.932 112.932 0 0 1 9.39-5.303c16.069-8.086 34.07-12.384 52.03-12.328.01 0 .024.004.033.004v-.004h.03v.004c.013 0 .023-.004.033-.004 17.961-.056 35.962 4.242 52.027 12.328a111.933 111.933 0 0 1 13.887 8.287 106.967 106.967 0 0 1 12.521 10.246c1.31 1.231 2.591 2.495 3.839 3.788 2.495 2.588 4.87 5.29 7.11 8.096a114.219 114.219 0 0 1 6.334 8.715 114.25 114.25 0 0 1 7.885 14.087c6.052 13.025 9.563 27.182 10.383 41.444.212 3.636.269 7.133.259 10.574-.007 3.437-.077 6.822-.12 10.23l-.251 20.446-.066 5.115-.03 2.554.076 2.26c.053 1.481.219 2.96.496 4.42a28.81 28.81 0 0 0 1.159 4.297 30.374 30.374 0 0 0 1.724 4.122c1.684 3.325 3.98 6.356 6.713 8.92.546.513 1.109 1.009 1.691 1.485.58.48 1.175.94 1.787 1.38 4.285 3.063 9.338 5.029 14.616 5.75 3.775.42 7.637.278 11.386-.503a32.765 32.765 0 0 0 6.578-2.107 33.867 33.867 0 0 0 7.961-4.82 33.917 33.917 0 0 0 6.436-6.899 68.605 68.605 0 0 0 4.07-6.55c.639-1.165-.784-2.4-1.813-1.559a32.605 32.605 0 0 1-4.375 3.017 32.232 32.232 0 0 1-10.463 3.825 32.826 32.826 0 0 1-5.774.51c-2.253 0-4.457-.229-6.581-.662a32.658 32.658 0 0 1-6.132-1.903 32.723 32.723 0 0 1-10.386-7.003 32.834 32.834 0 0 1-5.628-7.527 32.529 32.529 0 0 1-3.942-15.57 32.539 32.539 0 0 1 9.57-23.096 32.714 32.714 0 0 1 10.386-7 32.677 32.677 0 0 1 12.713-2.567c4.514 0 8.809.913 12.717 2.567 11.723 4.956 19.956 16.565 19.956 30.096a.45.45 0 0 1-.007.07v.07c.01-.047.027-.09.04-.14-.037 1.092-.123 2.164-.195 3.243M330 265.378c-8.302 0-15.03-6.726-15.03-15.027 0-8.297 6.728-15.027 15.03-15.027 8.299 0 15.03 6.73 15.03 15.027 0 8.301-6.731 15.027-15.03 15.027M330 0C147.744 0 0 147.72 0 329.949c0 98.395 43.092 186.713 111.422 247.168 8.964-7.9 21.332-15.03 34.978-18.762 23.557-6.438 40.135-7.378 64.796-12.393-.99 39.476-1.777 73.639-2.174 91.057a327.247 327.247 0 0 0 32.66 10.908c-9.524-77.073-11.724-178.118-12.23-218.461l-.153-17.667v-10.984c2.935 1.35 5.692 5.316 5.887 8.77l6.776 128.916c26.34-8.172 32.723-22.057 34.976-33.851.01.03.02.03.03-.02 2.395-11.825 13.427-21.187 25.958-21.187 3.15 0 5.659.327 8.028.982 7.382 2.051 15.509 2.3 18.338 2.3 5.85 0 14.807-2.733 19.804-5.77 7.352-4.473 10.132-7.494 12.481-10.842-.006-.086-.026-.162-.076-.205-.043-.04-.12-.053-.208-.056-2.714 1.958-4.914 3.156-6.75 4.25-6.887 4.1-15.662 6.585-24.798 6.624-9.14-.04-18.189-2.352-25.009-6.56-15.952-9.843-39.899-29.822-54.653-61.322-13.349-28.502-13.273-77.106-13.18-84.444.03-3.705 3.08-7.348 6.68-8.191 11.354-.665 32.531-1.115 43.407 3.42 12.449 5.191 23.67 16.45 28.239 35.586h.016c-.003.026-.016.046-.016.07 0 .512.427.929.95.929a.94.94 0 0 0 .95-.93c0-.046-.02-.089-.027-.135l.026-.004c-.877-14.017-5.506-30.62-24.916-40.693-9.242-4.797-20.853-6.389-31.044-6.657 3.53-4.592 4.304-12.185 4.311-17.71l.007.01s-.07-.698.41-.9c.424-.178.764.113.966.334h.004c7.875 8.553 18.642 12.56 26.716 8.487 8.56-4.321 11.472-16.698 8.69-29.184l.002.007s-.069-.695.41-.897c.381-.159.689.056.897.265 5.698 8.545 15.208 14.401 26.419 14.547 11.204-.146 20.717-5.998 26.415-14.547.209-.209.513-.424.897-.265.483.202.414.897.414.897v-.007c-2.783 12.486.129 24.863 8.689 29.184 8.074 4.072 18.84.066 26.716-8.487.003-.003.003 0 .003 0 .202-.221.543-.512.97-.334.48.202.41.9.41.9l.004-.01c.006 5.525.78 13.118 4.308 17.71-10.188.268-21.8 1.86-31.038 6.657-19.41 10.074-24.043 26.676-24.92 40.693l.014.004c0 .023-.014.043-.014.066 0 .513.427.93.95.93a.94.94 0 0 0 .95-.93c4.57-19.136 15.79-30.395 28.238-35.586 10.86-4.529 31.998-4.089 43.36-3.424 3.465.834 5.947 4.486 5.976 8.195h-.089c.027.212.09.424.09.632v-.632h.003c.033 11.46.407 56.137-13.305 85.301-7.426 15.798-19.096 29.852-30.079 40.601l.308 18.018c.212 9.855 1.079 21.604 2.564 31.225 2.019 13.1 9.868 27.129 35.959 34.768l6.773-128.916c.218-3.242 2.697-7.19 5.887-8.77v10.887l-.15 17.796c-.509 40.41-2.713 141.604-12.262 218.69a326.702 326.702 0 0 0 32.695-10.891c-.39-17.33-1.184-51.641-2.177-91.333 24.662 5.013 39.022 6.14 62.579 12.58 14.304 3.91 27.146 11.552 36.153 19.903C616.368 517.777 660 428.963 660 329.949 660 147.72 512.253 0 330 0"/><path d="M304.607 569.515c-2.87-1.775-8.462-4.515-15.679-4.515H252v6h52.079c.897 0 1.264-1.029.528-1.485M361.393 569.515c-.736.456-.37 1.485.528 1.485H414v-6h-36.928c-7.217 0-12.813 2.74-15.679 4.515M310.11 357.246c.706.12 1.14-.607.733-1.254-1.114-1.795-3.862-4.205-7.705-5.038-4.472-.97-7.66.27-14.98.146-7.078-.117-13.649-1.583-20.044-4.907-10.17-5.283-17.6-2.884-21.704-.79-.663.34-.48 1.492.246 1.427 5.4-.48 8.851.99 13.15 4.5 4.473 3.65 13.43 8.658 19.878 9.371 5.854.644 12.07.296 17.05-1.52 4.535-1.657 8.722-2.732 13.376-1.935M386.317 360.699c6.448-.71 15.402-5.718 19.878-9.37 4.3-3.507 7.747-4.98 13.148-4.494.729.062.908-1.094.248-1.43-4.107-2.095-11.533-4.497-21.707.79-6.392 3.32-12.963 4.786-20.04 4.906-7.324.121-10.513-1.115-14.985-.146-3.839.83-6.587 3.243-7.701 5.035-.408.65.023 1.378.733 1.254 4.654-.794 8.838.281 13.376 1.938 4.98 1.817 11.195 2.164 17.05 1.517M339.741 406.972c.958-.568 1.303-1.04 1.253-1.365.1-.617-1.03-.833-2.511-.32-7.623 2.642-11.187 2.656-18.974.004-1.496-.508-2.576-.21-2.502.41-.06.325.241.768 1.06 1.244 9.303 5.405 12.617 5.4 21.674.027M308.523 438.41c1.674 3.115 4.165 6.223 8.114 8.639 4.381 2.678 8.949 2.951 11.864 2.951 2.911 0 7.479-.273 11.863-2.951 3.949-2.416 6.44-5.524 8.11-8.64.855-1.591 2.192-3.3 3.036-3.905.536-.543.616-1.115.32-1.629-.372-.634-1.276-.266-1.276-.266-1.962.94-5.746 1.152-7.652.485-4.15-1.447-9.02-1.738-11.533.863-.882.915-1.82 1.804-2.868 1.804-1.052 0-1.99-.89-2.872-1.804-2.513-2.601-7.38-2.31-11.533-.863-1.903.667-5.69.455-7.649-.485 0 0-.903-.368-1.275.266-.3.514-.216 1.086.319 1.629.845.605 2.178 2.314 3.032 3.906"/></g></svg>